<?xml version="1.0" encoding="utf-8"?>
<svg viewBox="0 0 500 500" xmlns="http://www.w3.org/2000/svg">
  <path d="M 0.362 0.027 L 250 0.027 L 499.638 0.027 L 499.638 250.001 L 499.638 499.974 L 250 499.974 L 0.362 499.974 L 0.362 250.001 L 0.362 0.027 Z M 43.981 231.545 C 36.444 260.854 32.556 315.002 59.416 362.07 C 91.457 418.217 126.035 429.42 163.432 444.277 C 208.837 462.315 247.416 459.521 294.292 455.012 C 357.623 448.92 379.308 441.746 409.713 406.696 C 441.817 369.688 444.726 326.796 445.282 286.238 C 446.011 233.096 442.277 173.337 415.756 134.913 C 386.328 92.278 311.43 37.358 233.894 65.791 C 165.226 90.972 54.967 188.827 43.981 231.545 Z" style="fill: rgb(216, 216, 216); stroke: rgb(0, 0, 0);" transform="matrix(1, 0, 0, 1, -5.684341886080802e-14, 0)"/>
</svg>