<?xml version="1.0" encoding="utf-8" ?>
<svg xmlns="http://www.w3.org/2000/svg" xmlns:xlink="http://www.w3.org/1999/xlink" width="274" height="246">
	<path fill="white" d="M144.642 94.5396C145.447 94.5756 201.295 125.878 205.249 128.676C206.406 131.285 207.029 134.024 207.808 136.758C209.209 141.677 210.49 146.576 211.787 151.522L145.309 132.553L78.3811 152.024L84.2242 129.426C86.5057 127.456 89.3338 126.117 91.9455 124.625C95.8741 122.38 99.8002 120.129 103.72 117.868C111.955 113.117 120.243 108.462 128.486 103.725C133.835 100.65 139.153 97.3429 144.642 94.5396ZM144.74 109.468L111.696 128.71C118.489 126.397 125.42 124.593 132.309 122.597C134.787 121.878 137.271 121.181 139.75 120.468C141.538 119.953 143.431 119.319 145.293 119.163L177.8 128.502C169.938 123.272 161.324 118.854 153.136 114.125C151.195 113.004 149.259 111.88 147.31 110.771C146.558 110.343 145.593 109.616 144.74 109.468Z"/>
</svg>
