<?xml version="1.0" encoding="utf-8" ?>
<svg xmlns="http://www.w3.org/2000/svg" xmlns:xlink="http://www.w3.org/1999/xlink" width="646" height="549">
	<path fill="#FEFEFE" d="M316.913 28.1909C325.234 27.133 336.155 29.1031 343.287 33.4268C355.834 41.033 362.852 50.6107 366.373 64.7545L401.753 75.0592C409.576 77.8565 417.8 81.1647 425.165 85.0248C430.428 87.7833 435.5 91.0432 440.546 94.1791C446.844 98.0929 453.033 102.084 458.916 106.61C488.048 129.023 511.173 158.443 526.75 191.677C535.549 210.449 541.661 230.938 544.82 251.419C546.274 260.845 546.97 270.552 547.451 280.073C547.659 284.188 548.251 288.289 548.226 292.411C548.201 296.676 547.795 300.971 547.557 305.232C547.192 311.756 547.034 318.461 545.781 324.892C545.041 328.688 544.27 332.562 543.151 336.267C541.986 340.122 540.431 343.758 539.011 347.51C536.84 353.244 534.738 359.003 532.675 364.776C539.691 372.102 545.203 379.631 547.52 389.717C550.175 401.277 547.656 413.138 541.401 423.113C535.38 432.714 525.498 440.429 514.339 442.943C506.815 444.639 499.96 444.791 492.517 442.62C490.315 441.978 488.076 441.29 486.128 440.056C477.547 448.867 468.661 457.736 458.951 465.3C422.338 493.824 375.192 509.226 329.133 511.12L303.314 510.708C282.96 509.132 262.424 505.152 243.319 497.846C222.542 489.9 202.951 477.889 185.384 464.346C175.821 456.973 166.647 449.709 158.744 440.487C154.17 442.32 149.437 443.861 144.478 444.145C131.769 444.872 119.493 441.038 109.941 432.494C100.924 424.429 95.9866 413.161 95.4498 401.169C94.8107 386.891 101.525 375.448 110.841 365.358L100.463 330.195C99.2624 324.868 98.8296 319.282 98.136 313.867C91.7082 263.682 102.877 210.367 129.905 167.49C141.833 148.568 156.139 132.146 172.708 117.181C178.148 112.267 183.793 107.264 189.767 102.998C192.25 101.225 194.864 99.7712 197.459 98.1802C202.436 95.1281 207.322 92.0901 212.401 89.2014C219.598 85.1086 226.766 80.9723 234.407 77.748C248.241 71.9096 263.077 67.773 277.702 64.4567C279.415 57.4795 281.937 51.1568 286.399 45.4663C293.98 35.7996 304.699 29.6672 316.913 28.1909ZM277.407 82.6638C269.474 85.367 261.548 88.082 253.608 90.765C248.911 92.3522 243.824 93.792 239.302 95.7951C234.299 98.0115 229.557 100.837 224.81 103.541C220.114 106.218 215.153 108.782 210.633 111.739C207.241 113.959 204.075 116.518 200.79 118.888C196.235 122.174 190.951 124.951 186.646 128.499C181.582 132.672 176.802 137.543 172.253 142.271C157.272 157.837 144.714 175.505 135.145 194.892C127.672 210.031 122.264 226.159 118.433 242.578C117.214 247.802 115.937 252.877 115.264 258.21C114.725 262.485 114.932 266.943 114.78 271.248C114.616 275.916 113.962 280.557 113.821 285.228C113.724 288.454 114.113 291.657 114.163 294.879C114.343 306.415 114.63 318.506 118.415 329.537C119.137 331.643 120.014 333.524 120.516 335.71L120.614 336.117C120.769 336.8 120.751 337.14 120.605 337.817C120.216 339.622 122.06 343.892 122.632 345.685C123.858 349.526 125.005 353.393 126.203 357.243C136.936 353.177 148.232 353.997 158.624 358.692C169.696 363.693 178.188 372.536 182.437 383.974C186.419 394.694 185.528 407.453 180.739 417.752C178.725 422.083 176.003 427.427 172.336 430.536C177.44 435.165 182.502 440.003 187.815 444.383C193.091 448.731 198.995 452.71 204.534 456.734C212.375 462.431 220.03 467.768 228.635 472.292C237.06 476.72 246.009 479.9 255.054 482.751C280.046 490.63 306.724 494.696 332.942 493.422C351.822 492.505 372.123 489.185 389.794 482.389C400.34 478.373 410.969 474.362 421.011 469.178C439.95 459.402 456.194 445.413 471.34 430.575C463.273 420.356 457.469 408.191 459.066 394.834C460.528 382.605 466.626 371.494 476.345 363.855C486.082 356.204 499.314 353.434 511.45 355.002L517.698 356.058C520.04 349.736 522.729 343.32 524.726 336.897C526.431 331.411 527.659 325.443 528.611 319.777C530.525 308.381 530.112 296.952 529.583 285.478C529.284 278.997 529.502 272.647 528.879 266.166C528.269 259.811 527.066 253.436 525.8 247.181C522.308 229.935 516.946 213.171 509.585 197.179C501.331 179.249 490.11 162.872 477.25 147.955C473.207 143.265 469.081 138.472 464.559 134.239C461.458 131.335 458.101 128.897 454.798 126.243C451.602 123.675 448.614 120.894 445.329 118.426C441.495 115.546 437.401 113.089 433.366 110.51C424.379 104.765 415.162 99.3488 405.123 95.6544L366.08 82.5968C361.96 96.0551 354.2 106.355 341.61 112.931C331.265 118.336 318.268 118.816 307.243 115.19C297.003 111.821 287.296 103.398 282.492 93.7779C280.804 90.3981 280.318 85.676 277.965 82.8233L277.407 82.6638ZM501.758 369.567C492.84 370.703 485.599 373.448 479.915 380.755C474.882 387.224 473.075 395.958 474.114 403.989C475.082 411.473 479.229 418.727 485.269 423.232C489.853 426.65 495.397 428.28 501.008 428.962C502.466 429.14 504.134 429.452 505.593 429.246L506.125 429.161C515.152 427.139 523.461 424.272 528.681 415.992L528.963 415.536C533.275 408.659 534.769 400.73 533 392.76C531.214 384.708 526.391 377.963 519.355 373.608C514.255 370.45 507.715 369.103 501.758 369.567ZM318.433 42.6967C310.534 43.8325 302.703 48.2013 297.904 54.6162C293.395 60.6423 291.352 69.063 292.451 76.4837C293.684 84.814 298.088 92.5114 304.947 97.4885C311.067 101.929 317.962 103.013 325.386 102.416C333.031 101.312 340.419 97.7862 345.127 91.5286C350.168 84.8272 352.846 76.0162 351.535 67.651C350.33 59.954 345.773 52.5744 339.471 48.0434C333.33 43.6284 325.89 42.1205 318.433 42.6967ZM137.099 369.909C129.741 370.445 122.608 373.872 117.754 379.485C112.425 385.648 109.724 393.422 110.37 401.578C111.007 409.614 115.078 417.404 121.248 422.573C127.194 427.555 135.643 429.562 143.287 428.867L144.512 428.734C151.737 427.756 159.783 423.289 164.2 417.435C169.182 410.834 171.128 402.779 169.94 394.596C168.764 386.498 163.849 379.171 157.347 374.326C151.958 370.311 143.922 368.888 137.318 369.867L137.099 369.909Z"/>
</svg>
